<svg xmlns="http://www.w3.org/2000/svg" viewBox="0 0 32 32" id="Wolf--Streamline-Twemoji" height="32" width="32">
  <desc>
    Wolf Streamline Emoji: https://streamlinehq.com
  </desc>
  <path fill="#66757f" d="M13.20711111111111 8.441777777777776c0.42222222222222217 2.0675555555555554 -0.16177777777777777 3.765333333333333 -2.5964444444444443 4.1226666666666665 -2.436444444444444 0.3582222222222222 -5.955555555555556 3.464888888888889 -7.864888888888889 -1.5982222222222222C1.6391111111111112 8.033777777777777 0.9706666666666667 1.9857777777777776 2.336 1.7857777777777777c1.366222222222222 -0.2008888888888889 10.449777777777777 4.588444444444444 10.87111111111111 6.656z" stroke-width="0.8889"></path>
  <path fill="#ccd6dd" d="M11.363555555555555 8.756444444444444c0.7688888888888888 1.2373333333333332 -1.96 3.407111111111111 -3.4168888888888884 4.060444444444444 -1.456888888888889 0.6542222222222221 -2.591111111111111 -0.5866666666666667 -3.7093333333333334 -3.644444444444444 -0.48888888888888893 -1.3359999999999999 -1.0968888888888888 -4.917333333333333 -0.5635555555555555 -5.157333333333333 0.5324444444444444 -0.23822222222222222 6.92 3.504 7.689777777777778 4.7413333333333325z" stroke-width="0.8889"></path>
  <path fill="#66757f" d="M18.997333333333334 8.441777777777776c-0.4071111111111111 2.0675555555555554 0.1564444444444444 3.765333333333333 2.504888888888889 4.1226666666666665 2.350222222222222 0.3582222222222222 5.745777777777778 3.464888888888889 7.5875555555555545 -1.5982222222222222 1.0675555555555556 -2.933333333333333 1.712888888888889 -8.980444444444444 0.39555555555555555 -9.181333333333333 -1.3182222222222222 -0.19999999999999998 -10.081777777777777 4.589333333333333 -10.488 6.656888888888888z" stroke-width="0.8889"></path>
  <path fill="#ccd6dd" d="M20.776 8.756444444444444c-0.7422222222222221 1.2373333333333332 1.8906666666666663 3.407111111111111 3.296 4.060444444444444 1.4053333333333333 0.6542222222222221 2.4995555555555553 -0.5866666666666667 3.5786666666666664 -3.644444444444444 0.472 -1.3359999999999999 1.0577777777777777 -4.917333333333333 0.5431111111111111 -5.157333333333333 -0.5128888888888888 -0.23822222222222222 -6.674666666666667 3.504 -7.417777777777778 4.7413333333333325z" stroke-width="0.8889"></path>
  <path fill="#66757f" d="M28.75288888888889 23.921777777777777c0 -0.40355555555555556 -0.1671111111111111 -0.9697777777777777 -0.36177777777777775 -1.4995555555555555 0.5199999999999999 0.024888888888888887 1.350222222222222 0.16977777777777778 2.462222222222222 0.7262222222222221 -0.007111111111111111 -0.47644444444444445 -0.10488888888888888 -0.8746666666666666 -0.24266666666666667 -1.2382222222222221 0.036444444444444446 0.017777777777777778 0.06666666666666667 0.030222222222222223 0.10311111111111111 0.048888888888888885 -0.9813333333333334 -2.942222222222222 -2.941333333333333 -4.904 -2.941333333333333 -4.904h1.9608888888888887c-2.072 -4.144888888888889 -4.413333333333333 -7.124444444444444 -7.177777777777777 -8.496888888888888 -1.2355555555555553 -0.7759999999999999 -3.2782222222222224 -1.1893333333333334 -6.5537777777777775 -1.190222222222222h-0.0026666666666666666c-3.2853333333333334 0 -5.329777777777778 0.416 -6.564444444444444 1.1964444444444444 -2.759111111111111 1.375111111111111 -5.096888888888889 4.351999999999999 -7.165333333333333 8.490666666666666H4.231111111111111s-1.9617777777777776 1.9608888888888887 -2.943111111111111 4.904l0.07466666666666667 -0.034666666666666665c-0.17866666666666667 0.34844444444444445 -0.27288888888888885 0.7528888888888888 -0.25066666666666665 1.224 1.1226666666666665 -0.5617777777777777 1.9706666666666666 -0.704 2.5004444444444442 -0.727111111111111 -0.16799999999999998 0.45599999999999996 -0.3048888888888889 0.9279999999999999 -0.3431111111111111 1.3111111111111111 -0.10933333333333332 0.3297777777777778 -0.16977777777777778 0.7217777777777777 -0.12 1.1937777777777776 2.8506666666666662 -1.2959999999999998 4.183999999999999 -1.1111111111111112 5.7395555555555555 -0.3333333333333333C9.96711111111111 27.813333333333333 12.627555555555555 30.22222222222222 16.000888888888888 30.22222222222222c3.3715555555555556 0 5.996444444444444 -2.4835555555555553 7.073777777777778 -5.703111111111111 1.2959999999999998 -1.1111111111111112 3.296 -0.7777777777777777 5.703111111111111 0.36977777777777776 0.058666666666666666 -0.36711111111111105 0.031999999999999994 -0.6871111111111111 -0.031999999999999994 -0.9715555555555555l0.007111111111111111 0.0044444444444444444z" stroke-width="0.8889"></path>
  <path fill="#ccd6dd" d="M30.713777777777775 21.95911111111111c-0.3884444444444444 -1.167111111111111 -3.2577777777777777 -2.7564444444444445 -6.198222222222221 -4.011555555555555 0.2311111111111111 -0.5902222222222222 0.3733333333333333 -1.2453333333333332 0.3733333333333333 -1.9475555555555553 0 -2.454222222222222 -1.5919999999999999 -4.444444444444445 -3.5555555555555554 -4.444444444444445s-3.5555555555555554 1.9902222222222221 -3.5555555555555554 4.444444444444445c0 2.6666666666666665 3.5555555555555554 8.88888888888889 -1.7786666666666664 9.882666666666667 -4.555555555555555 -0.8488888888888888 -2.625777777777778 -5.512 -1.9662222222222223 -8.515555555555554 0.06399999999999999 -0.24533333333333335 0.1111111111111111 -0.49688888888888894 0.14044444444444443 -0.7582222222222221 0.030222222222222223 -0.21777777777777776 0.048888888888888885 -0.42311111111111105 0.048888888888888885 -0.6088888888888889 0 -2.454222222222222 -1.5919999999999999 -4.444444444444445 -3.5555555555555554 -4.444444444444445s-3.5555555555555554 1.9902222222222221 -3.5555555555555554 4.444444444444445c0 0.7022222222222222 0.14222222222222222 1.3573333333333333 0.3742222222222222 1.9475555555555553 -2.940444444444444 1.255111111111111 -5.808888888888888 2.8444444444444446 -6.198222222222221 4.011555555555555C3.2488888888888887 20.977777777777778 4.230222222222222 20.977777777777778 4.230222222222222 20.977777777777778s-0.9813333333333334 1.9626666666666668 -0.9813333333333334 2.9439999999999995c2.373333333333333 -1.5822222222222222 4.745777777777778 -1.886222222222222 6.603555555555555 -0.4017777777777778C10.930666666666667 26.740444444444442 12.444444444444443 29.333333333333332 16.000888888888888 26.776888888888887c3.5546666666666664 2.5564444444444443 5.066666666666666 -0.035555555555555556 6.143999999999999 -3.255111111111111 1.8595555555555556 -1.487111111111111 4.233777777777777 -1.1822222222222223 6.608 0.39999999999999997 0 -0.9813333333333334 -0.9804444444444443 -2.9439999999999995 -0.9804444444444443 -2.9439999999999995s0.9804444444444443 0.0008888888888888888 2.941333333333333 0.9813333333333334z" stroke-width="0.8889"></path>
  <path fill="#292f33" d="M9.777777777777777 15.11111111111111s0 -1.3333333333333333 1.3333333333333333 -1.3333333333333333S12.444444444444443 15.11111111111111 12.444444444444443 15.11111111111111v1.3333333333333333s0 1.3333333333333333 -1.3333333333333333 1.3333333333333333 -1.3333333333333333 -1.3333333333333333 -1.3333333333333333 -1.3333333333333333V15.11111111111111zm9.777777777777777 0s0 -1.3333333333333333 1.3333333333333333 -1.3333333333333333S22.22222222222222 15.11111111111111 22.22222222222222 15.11111111111111v1.3333333333333333s0 1.3333333333333333 -1.3333333333333333 1.3333333333333333 -1.3333333333333333 -1.3333333333333333 -1.3333333333333333 -1.3333333333333333V15.11111111111111zm-6.276444444444444 8.138666666666667c-0.9075555555555554 0.18488888888888888 1.814222222222222 3.527111111111111 2.7217777777777776 3.527111111111111 0.9066666666666666 0 3.628444444444444 -3.342222222222222 2.7217777777777776 -3.527111111111111s-4.536 -0.18488888888888888 -5.443555555555555 0z" stroke-width="0.8889"></path>
</svg>